<svg width="129" height="220" viewBox="0 0 129 220" fill="none" xmlns="http://www.w3.org/2000/svg">
<g id="_5---RECRUITING">
<g id="CV-2">
<path id="Vector" d="M99.1831 0.493164H4.87646V141.372H99.1831V0.493164Z" fill="#B5D6D4"/>
<g id="Group">
<g id="Group_2">
<path id="Vector_2" d="M72.6801 47.428C82.5717 47.428 90.5904 38.5519 90.5904 27.6027C90.5904 16.6534 82.5717 7.77734 72.6801 7.77734C62.7885 7.77734 54.7698 16.6534 54.7698 27.6027C54.7698 38.5519 62.7885 47.428 72.6801 47.428Z" fill="white"/>
</g>
<g id="Group_3">
<path id="Vector_3" fill-rule="evenodd" clip-rule="evenodd" d="M58.0034 38.9627C62.4154 35.458 74.6275 27.8865 87.4735 38.7713C84.248 43.9944 78.8224 47.4258 72.6786 47.4258C66.6117 47.4258 61.2452 44.079 58.0034 38.9627Z" fill="#EC7954"/>
</g>
<g id="Group_4">
<g id="Group_5">
<path id="Vector_4" d="M73.2144 29.3406C76.7118 29.3406 79.547 26.2023 79.547 22.3309C79.547 18.4596 76.7118 15.3213 73.2144 15.3213C69.717 15.3213 66.8818 18.4596 66.8818 22.3309C66.8818 26.2023 69.717 29.3406 73.2144 29.3406Z" fill="#EC7954"/>
</g>
<g id="Group_6">
<path id="Vector_5" d="M84.0759 28.69C86.6199 28.69 88.6823 26.4072 88.6823 23.5911C88.6823 20.7751 86.6199 18.4922 84.0759 18.4922C81.5318 18.4922 79.4695 20.7751 79.4695 23.5911C79.4695 26.4072 81.5318 28.69 84.0759 28.69Z" fill="black"/>
</g>
<path id="Vector_6" fill-rule="evenodd" clip-rule="evenodd" d="M66.884 22.584C66.8826 22.5002 66.8811 22.4158 66.8811 22.3311C66.8811 18.4622 69.718 15.3213 73.214 15.3213C76.7084 15.3213 79.5453 18.4622 79.5453 22.3311C79.5453 22.5604 79.5365 22.7873 79.5158 23.011C74.7757 22.3116 73.4696 17.6941 73.4696 17.6941C71.9255 21.7901 68.8492 22.5524 66.884 22.584Z" fill="black"/>
</g>
</g>
<path id="Vector_7" fill-rule="evenodd" clip-rule="evenodd" d="M42.8541 33.8956H12.3953V39.0117H42.8541V33.8956ZM48.0481 23.1161H12.3953V28.2323H48.0481V23.1161ZM40.5744 12.3799H12.3953V17.4962H40.5744V12.3799Z" fill="#C93400"/>
<path id="Vector_8" fill-rule="evenodd" clip-rule="evenodd" d="M72.7926 84.745H25.4294V88.993H72.7926V84.745ZM72.7926 76.2506H25.4294V80.4986H72.7926V76.2506ZM72.7926 67.4121H25.4294V71.6601H72.7926V67.4121Z" fill="#C93400"/>
<path id="Vector_9" fill-rule="evenodd" clip-rule="evenodd" d="M72.7926 126.848H25.4294V131.095H72.7926V126.848ZM72.7926 118.354H25.4294V122.602H72.7926V118.354ZM72.7926 109.516H25.4294V113.763H72.7926V109.516Z" fill="#C93400"/>
<g id="Group_7">
<path id="Vector_10" d="M86.3501 53.1777H12.2666V60.8203H86.3501V53.1777Z" fill="#C93400"/>
</g>
<g id="Group_8">
<path id="Vector_11" d="M86.3501 96.1348H12.2666V103.777H86.3501V96.1348Z" fill="#C93400"/>
</g>
</g>
<g id="CHARACTER">
<g id="Group_9">
<path id="Vector_12" fill-rule="evenodd" clip-rule="evenodd" d="M43.7504 142.25C43.7504 142.25 16.2898 200.073 10.319 214.498C10.319 214.498 3.64182 215.275 0.611328 220H46.639L57.7504 198.576C57.7504 198.576 65.9878 210.593 73.4155 214.498C73.4155 214.498 69.1173 217.303 68.5765 220H110.866L80.6807 167.861C80.6807 167.861 102.318 122.947 80.6807 109.908C74.5843 106.235 59.6047 106.945 43.7504 142.25Z" fill="url(#paint0_linear_517_131)"/>
<path id="Vector_13" fill-rule="evenodd" clip-rule="evenodd" d="M54.838 122.48L46.899 142.464C40.9932 157.331 42.5077 174.53 50.8958 187.857L50.9387 187.924L83.7318 173.13L84.379 174.251L51.6316 189.024C55.2369 194.739 58.5747 199.844 60.3109 202.011C60.3419 202.048 60.3685 202.089 60.3921 202.132C58.7609 200.05 57.7503 198.576 57.7503 198.576L56.9878 200.045C55.0123 197.173 52.3955 193.107 49.6827 188.791C47.2566 184.936 45.386 180.767 44.0828 176.424L28.2935 175.059L28.5579 174.494L28.8845 173.798L43.6986 175.08C40.7641 164.249 41.3182 152.45 45.547 141.806L50.7865 128.615C52.1547 126.342 53.5067 124.304 54.838 122.48ZM81.1638 168.696L81.1579 168.711C81.1579 168.711 78.5751 164.184 77.065 161.537C76.9128 161.272 76.9335 160.931 77.1138 160.689C77.294 160.447 77.594 160.361 77.857 160.476L82.9265 162.669C81.6263 165.896 80.6806 167.86 80.6806 167.86L81.1638 168.696Z" fill="#C93400"/>
</g>
<g id="Group_10">
<g id="Group_11">
<path id="Vector_14" fill-rule="evenodd" clip-rule="evenodd" d="M121.327 27.9138C123.041 26.2585 125.491 23.2193 125.977 21.6359C126.685 19.3336 125.201 19.0197 124.405 19.708C121.091 22.5728 116.556 24.7873 116.556 24.7873C108.029 28.8957 86.9854 54.1877 86.9854 54.1877C74.6182 67.5616 55.0641 68.4955 49.6399 68.4845C47.7826 68.4752 45.946 68.9272 44.2675 69.8075C38.5094 72.8398 35.0253 79.1998 35.0253 79.1998C35.0253 79.1998 32.8281 76.5939 30.9043 75.4096C30.102 74.9189 29.1047 75.0732 28.4545 75.7881C26.6002 75.4058 24.7665 76.553 24.1061 78.5081C23.9583 78.9488 23.8357 79.3527 23.7751 79.6619C23.7751 79.6619 22.0522 80.4265 21.9636 82.4909C21.9636 82.4909 19.9334 83.4244 19.9245 85.6192C19.9245 85.6192 16.9088 89.0556 19.9245 92.4116C19.9245 92.4116 21.9798 93.7487 22.4778 90.8206C22.4778 90.8206 23.2166 117.396 23.5786 130.42C23.7042 134.893 25.5349 139.098 28.62 141.991C32.4203 145.557 37.8844 145.936 42.0585 142.925C42.3378 142.724 42.6067 142.531 42.8623 142.346C44.7152 141.01 46.3065 139.273 47.5388 137.238C49.5793 133.866 52.1917 128.317 52.4399 121.683V107.895C52.4399 107.895 62.0855 112.159 68.9074 95.8867C68.9074 95.8867 73.476 96.7383 79.673 95.0795C83.3802 94.0873 87.671 92.1964 91.9161 88.687C94.883 86.2405 97.4407 83.2365 99.4709 79.8115C103.44 73.1221 113.67 55.8577 116.556 50.8911C116.556 50.8911 120.073 45.1854 123.091 42.3101C123.091 42.3101 126.039 45.454 128.459 38.8274C128.459 38.8274 129.622 35.702 126.429 34.2686C126.429 34.2686 126.664 30.7767 123.635 30.7296C123.936 28.3443 122.877 27.8039 121.327 27.9138Z" fill="#FFCCC5"/>
<g id="Group_12">
<path id="Vector_15" fill-rule="evenodd" clip-rule="evenodd" d="M97.2876 42.4268C100.354 44.4375 106.261 49.0027 112.617 57.6024C108.35 64.8371 102.31 75.0284 99.4715 79.812C97.4413 83.237 94.8836 86.241 91.9167 88.6875C87.6716 92.1969 83.3808 94.0878 79.6735 95.08C73.4766 96.7388 68.908 95.8872 68.908 95.8872C62.0861 112.159 52.4405 107.896 52.4405 107.896V121.683C52.1922 128.317 49.5799 133.866 47.5394 137.239C46.3071 139.274 44.7158 141.011 42.8629 142.347C42.6073 142.532 42.3383 142.725 42.0591 142.926C37.885 145.937 32.4209 145.557 28.6206 141.992C25.5355 139.099 23.7048 134.894 23.5792 130.42L22.8359 103.691H32.9144C32.7268 100.86 32.8834 86.1226 33.9384 82.3577C34.3506 80.884 34.7629 79.7953 35.212 78.8788C36.004 77.5497 39.2842 72.4324 44.2681 69.808C45.9466 68.9277 47.7832 68.4757 49.6405 68.485C55.0646 68.496 74.6188 67.5621 86.986 54.1882C86.986 54.1882 91.5502 48.703 97.2876 42.4268Z" fill="#C93400"/>
<path id="Vector_16" fill-rule="evenodd" clip-rule="evenodd" d="M32.8885 103.144H32.9254V129.1C32.9254 129.292 32.791 129.449 32.6181 129.457C32.4467 129.465 32.2989 129.323 32.2842 129.133L30.2156 103.69H32.9151C32.9047 103.541 32.8959 103.358 32.8885 103.144ZM52.4411 108.672L51.5782 88.1316C51.5738 88.006 51.6521 87.8951 51.7644 87.8719C51.8752 87.8488 51.9861 87.9204 52.0215 88.0398C52.9081 91.2368 54.7269 98.542 55.9001 108.383C53.8182 108.504 52.4411 107.895 52.4411 107.895V108.672ZM68.6264 96.544C69.2677 94.6991 71.4589 87.0863 67.3705 78.8395C67.2789 78.6565 67.3247 78.4269 67.4769 78.3032C67.6291 78.1794 67.8403 78.2003 67.9719 78.352C69.9222 80.6376 73.0177 85.6539 75.2563 95.9197C71.4249 96.3561 68.9086 95.8869 68.9086 95.8869C68.8156 96.1098 68.721 96.329 68.6264 96.544Z" fill="#B44335"/>
</g>
<path id="Vector_17" fill-rule="evenodd" clip-rule="evenodd" d="M22.6232 90.1095C22.5301 90.7325 22.338 91.4228 22.338 91.4228L20.5752 90.3776C20.2856 90.212 20.1719 89.8171 20.3211 89.4962C20.4718 89.1753 20.8279 89.0493 21.1175 89.2148L22.6232 90.1095ZM20.3802 83.9574C20.5871 83.904 20.8161 83.8738 21.0673 83.8802C22.1932 83.909 23.8865 84.7136 25.9063 88.1584C26.0851 88.4613 26.0068 88.8668 25.7334 89.0634C25.4601 89.26 25.0937 89.1738 24.9149 88.8709C23.2496 86.0301 21.9686 85.212 21.0392 85.1883C20.3196 85.1698 19.9163 85.6839 19.9163 85.6839L19.9251 85.6191C19.9281 84.9516 20.1172 84.4009 20.3802 83.9574ZM22.3646 81.022C22.5907 80.9903 22.8478 80.9851 23.1359 81.0242C24.1953 81.1681 25.7925 81.9569 27.8183 84.7339C28.0237 85.0149 27.9838 85.4272 27.7296 85.6539C27.4755 85.8808 27.1032 85.8368 26.8992 85.556C23.6176 81.0582 21.9642 82.4908 21.9642 82.4908C21.9893 81.8985 22.1489 81.4133 22.3646 81.022ZM24.2308 78.1809C24.4775 78.1464 24.7568 78.1332 25.0656 78.1584C26.2063 78.2509 27.8079 78.8706 29.5751 81.111C29.7894 81.3828 29.7642 81.7965 29.519 82.0341C29.2737 82.2716 28.8999 82.2436 28.6856 81.9716C26.2506 78.8862 24.2928 79.4279 23.7771 79.6483C23.8407 79.341 23.9604 78.9423 24.1066 78.508C24.1436 78.3965 24.1864 78.2874 24.2308 78.1809ZM29.5988 75.1506C30.407 75.7369 31.5181 76.76 32.5273 78.4364C32.7076 78.737 32.6337 79.1435 32.3633 79.3436C32.0914 79.5438 31.7235 79.4624 31.5432 79.1618C30.1248 76.8043 28.3428 75.7647 28.4551 75.788C28.7743 75.4371 29.1762 75.2214 29.5988 75.1506ZM123.092 42.31C122.762 42.6241 125.913 38.7257 125.913 38.7257C126.53 38.1588 127.228 38.9627 126.783 39.6114L124.038 42.916C123.457 42.7003 123.092 42.31 123.092 42.31ZM126.316 33.0227C126.468 33.7023 126.43 34.2685 126.43 34.2685C126.498 34.2988 125.271 34.5063 124.62 34.8869C123.401 35.5989 122.402 36.6924 122.402 36.6924C122.17 36.9462 121.795 36.9438 121.566 36.6868C121.337 36.4301 121.339 36.0154 121.571 35.7616C121.571 35.7616 122.696 34.5312 124.069 33.7298C124.788 33.3091 125.574 33.0203 126.316 33.0227ZM123.637 29.3589C123.702 29.7248 123.705 30.1729 123.637 30.7176C122.906 30.9708 121.493 31.6518 119.692 33.4493C119.45 33.6912 119.076 33.6697 118.857 33.4015C118.638 33.1333 118.658 32.7193 118.9 32.4776C121.125 30.257 122.855 29.5691 123.637 29.3589ZM122.785 26.3711C122.281 26.9468 121.78 27.4782 121.328 27.9137C121.397 27.9088 118.443 29.1456 116.882 30.2616C116.607 30.4574 116.242 30.37 116.065 30.0666C115.887 29.7632 115.966 29.3581 116.24 29.1622C118.479 27.5634 120.833 26.4998 122.785 26.3711Z" fill="#C93400"/>
</g>
<g id="Group_13">
<g id="Group_14">
<path id="Vector_18" d="M49.8965 61.697C54.6106 61.697 58.432 57.4669 58.432 52.2489C58.432 47.0308 54.6106 42.8008 49.8965 42.8008C45.1825 42.8008 41.3611 47.0308 41.3611 52.2489C41.3611 57.4669 45.1825 61.697 49.8965 61.697Z" fill="#FFCCC5"/>
</g>
<path id="Vector_19" fill-rule="evenodd" clip-rule="evenodd" d="M51.7872 43.0332C55.5905 43.9872 58.4318 47.7531 58.4318 52.2481C58.4318 57.4625 54.6064 61.6962 49.8959 61.6962C49.7585 61.6962 49.6196 61.6924 49.4837 61.6852C48.1036 58.2414 50.218 56.8361 50.7854 56.5309C51.1341 56.8544 51.5848 57.0494 52.0768 57.0494C53.1835 57.0494 54.0819 56.0643 54.0819 54.8509C54.0819 53.6376 53.1835 52.6525 52.0768 52.6525C51.6321 52.6525 51.2198 52.8127 50.8859 53.0833C47.6943 48.2686 50.3422 44.5391 51.7872 43.0332Z" fill="black"/>
<path id="Vector_20" fill-rule="evenodd" clip-rule="evenodd" d="M60.3304 53.6685C60.2418 53.6413 60.9022 53.2532 61.0722 53.1291C61.542 52.7866 62.0045 52.423 62.4404 52.0286C63.7584 50.8331 64.5902 49.3956 65.5049 47.833C68.6107 42.5256 73.6093 37.1599 79.6348 36.8975C90.2925 36.4333 96.1998 49.7878 94.6484 60.0352C93.4723 67.8078 86.0268 71.8792 79.3703 70.7935C75.4164 70.1483 71.5998 67.628 68.9461 64.3532C67.3873 62.4291 66.2111 60.1726 64.9271 58.0256C63.7717 56.0907 62.5542 53.9475 60.3304 53.6685Z" fill="black"/>
</g>
</g>
</g>
</g>
<defs>
<linearGradient id="paint0_linear_517_131" x1="50.5132" y1="148.931" x2="44.3571" y2="270.12" gradientUnits="userSpaceOnUse">
<stop stop-color="#FFCCC5"/>
<stop offset="1" stop-color="#F49387"/>
</linearGradient>
</defs>
</svg>
