<svg width="24" height="24" viewBox="0 0 24 24" fill="none" xmlns="http://www.w3.org/2000/svg">
<g id="undraw_female_avatar_efig 1" clip-path="url(#clip0_517_423)">
<path id="Vector" d="M17.1062 17.0998H11.1062V8.97949L16.2942 11.8216L17.1062 17.0998Z" fill="#2F2E41"/>
<path id="Vector_2" d="M12.2148 15.6669C14.3662 15.6669 16.1102 13.9228 16.1102 11.7714C16.1102 9.62003 14.3662 7.87598 12.2148 7.87598C10.0634 7.87598 8.31934 9.62003 8.31934 11.7714C8.31934 13.9228 10.0634 15.6669 12.2148 15.6669Z" fill="#FFB6B6"/>
<path id="Vector_3" d="M9.97859 16.2427L9.8026 14.4638L13.3169 13.8066L15.3921 18.8593L11.7831 23.0096L9.21167 17.957L9.97859 16.2427Z" fill="#FFB6B6"/>
<path id="Vector_4" d="M20.6185 20.3501C20.5747 20.3956 20.53 20.4407 20.4854 20.4854C20.3437 20.6271 20.1994 20.7646 20.0519 20.8982C17.8413 22.903 15.0051 24.0001 12.0001 24.0001C9.22975 24.0001 6.60283 23.0677 4.47757 21.3511C4.47621 21.3502 4.47531 21.3493 4.47396 21.348C4.40945 21.2961 4.34584 21.2433 4.28223 21.1896C4.2935 21.1571 4.30569 21.1251 4.31787 21.0935C5.00132 19.3129 6.3511 18.4418 7.17035 18.0606C7.57636 17.8716 7.852 17.8025 7.852 17.8025L8.81381 16.0702L9.49095 17.3334L9.9899 18.2645L12.0371 22.0842L13.8033 17.6866L14.3505 16.3233L14.4908 15.9741L15.158 16.4934L15.7896 16.9846L17.0613 17.2652L18.0931 17.4931L19.4943 17.8025C20.0609 18.264 20.4055 19.1419 20.5982 20.2328C20.6054 20.2716 20.6122 20.3108 20.6185 20.3501Z" fill="#CDB263"/>
<path id="Vector_5" d="M10.1657 7.3447C10.6402 6.54765 11.5117 6.00077 12.4358 5.92017C13.3598 5.83957 14.3128 6.22731 14.9182 6.93017C15.2789 7.34901 15.5154 7.86196 15.867 8.28847C16.6237 9.20631 17.9139 9.74297 18.2444 10.8856C18.3887 11.3843 18.3168 11.9166 18.2438 12.4305C18.1812 12.871 18.1187 13.3115 18.0561 13.752C18.0075 14.0948 17.9608 14.4562 18.0893 14.7777C18.2401 15.1548 18.601 15.4019 18.8343 15.7344C19.2314 16.3002 19.2023 17.1285 18.7667 17.6651C18.5777 17.8979 18.3273 18.0734 18.1292 18.2983C17.9311 18.5233 17.7842 18.8309 17.8671 19.119C18.0261 19.6707 18.8914 19.8031 18.9863 20.3694C19.0348 20.6589 18.8349 20.9481 18.5728 21.0805C18.3108 21.2129 18.0023 21.2167 17.7109 21.1813C16.6032 21.0467 15.5777 20.3546 15.0384 19.3777C14.499 18.4009 14.4598 17.1642 14.936 16.1551C15.3272 15.3263 16.0541 14.594 16.0462 13.6776C16.0419 13.1783 15.8129 12.712 15.589 12.2658C15.1307 11.3524 14.6724 10.4391 14.2141 9.52574C13.9686 9.03649 13.6836 8.50927 13.1782 8.29909C12.7876 8.13666 12.3444 8.19966 11.9266 8.2661C11.5088 8.33253 11.0662 8.3972 10.6744 8.23759C10.2827 8.07798 9.98663 7.60377 10.1733 7.22413" fill="#2F2E41"/>
<path id="Vector_6" d="M10.8484 7.38604C10.0958 7.1383 9.25153 7.536 8.74202 8.14278C8.2325 8.74956 7.98535 9.52801 7.7499 10.2845C7.61503 10.7179 7.48016 11.1512 7.3453 11.5846C7.21843 11.9922 7.09156 12.3999 6.96469 12.8075C6.81547 13.287 6.66502 13.7964 6.78749 14.2834C6.87603 14.6355 7.10385 14.9552 7.10875 15.3182C7.11387 15.6974 6.8764 16.0303 6.66829 16.3474C6.46018 16.6644 6.26482 17.0411 6.36398 17.4071C6.51479 17.9639 7.28888 18.2699 7.24645 18.8452C7.23229 19.0372 7.12126 19.2148 7.12328 19.4073C7.12584 19.6522 7.3176 19.8638 7.54226 19.9614C7.76692 20.059 8.01963 20.0643 8.26453 20.06C9.01572 20.0468 9.76555 19.9576 10.4989 19.7942C10.781 19.7313 11.0679 19.6542 11.3028 19.4857C11.5376 19.3171 11.7128 19.0379 11.6822 18.7505C11.6346 18.3026 11.153 18.0485 10.91 17.6692C10.6713 17.2967 10.6768 16.8247 10.5739 16.3945C10.4324 15.8031 10.0831 15.2868 9.82079 14.7383C8.83476 12.6759 9.17993 10.0471 10.6649 8.30919C10.7963 8.15553 10.9397 8.00094 10.9945 7.80639C11.0493 7.61184 10.9786 7.36396 10.7883 7.2959" fill="#2F2E41"/>
<g id="Vector_7">
<mask id="path-7-inside-1_517_423" fill="white">
<path d="M20.4853 3.51474C18.2188 1.24827 15.2053 0 12 0C8.79474 0 5.7812 1.24827 3.51474 3.51474C1.24827 5.7812 0 8.79473 0 12C0 14.9256 1.03985 17.6914 2.94541 19.8753C3.12722 20.0842 3.31714 20.2877 3.51474 20.4853C3.5612 20.5317 3.60812 20.5782 3.65549 20.6233C3.78181 20.7456 3.91038 20.8651 4.0412 20.9811C4.1206 21.0519 4.2009 21.1214 4.2821 21.1895C4.34572 21.2432 4.40932 21.2959 4.47383 21.3478C4.47519 21.3492 4.47609 21.3501 4.47744 21.351C6.60271 23.0675 9.22963 24 12 24C15.005 24 17.8412 22.9029 20.0517 20.898C20.1992 20.7645 20.3436 20.6269 20.4853 20.4853C20.5299 20.4406 20.5746 20.3955 20.6183 20.3499C20.7402 20.2245 20.8583 20.0968 20.9738 19.9674C22.9304 17.7695 24 14.9671 24 12C24 8.79473 22.7517 5.7812 20.4853 3.51474ZM20.9445 19.855C20.8317 19.9832 20.7162 20.1095 20.598 20.2326C20.414 20.4244 20.2241 20.6102 20.0278 20.7893C19.9534 20.8579 19.878 20.9247 19.8018 20.991C19.0317 21.6609 18.1746 22.2329 17.2502 22.6886C16.9259 22.8487 16.5934 22.9944 16.2532 23.1248C14.9319 23.6319 13.4977 23.9098 12 23.9098C10.5546 23.9098 9.16872 23.6508 7.88617 23.1771C7.3597 22.9832 6.85083 22.7526 6.36226 22.4887C6.29053 22.4499 6.21925 22.4107 6.14842 22.3705C5.77579 22.1594 5.41534 21.9289 5.06932 21.6798C4.81083 21.4944 4.56 21.2991 4.31775 21.0934C4.23293 21.0217 4.14902 20.949 4.06647 20.8746C3.93203 20.755 3.8003 20.6319 3.67173 20.5056C3.42812 20.2669 3.19534 20.0183 2.97293 19.7598C1.17699 17.6738 0.0902256 14.9617 0.0902256 12C0.0902256 5.43293 5.43293 0.0902256 12 0.0902256C18.5671 0.0902256 23.9098 5.43293 23.9098 12C23.9098 15.0072 22.7896 17.7573 20.9445 19.855Z"/>
</mask>
<path d="M20.4853 3.51474C18.2188 1.24827 15.2053 0 12 0C8.79474 0 5.7812 1.24827 3.51474 3.51474C1.24827 5.7812 0 8.79473 0 12C0 14.9256 1.03985 17.6914 2.94541 19.8753C3.12722 20.0842 3.31714 20.2877 3.51474 20.4853C3.5612 20.5317 3.60812 20.5782 3.65549 20.6233C3.78181 20.7456 3.91038 20.8651 4.0412 20.9811C4.1206 21.0519 4.2009 21.1214 4.2821 21.1895C4.34572 21.2432 4.40932 21.2959 4.47383 21.3478C4.47519 21.3492 4.47609 21.3501 4.47744 21.351C6.60271 23.0675 9.22963 24 12 24C15.005 24 17.8412 22.9029 20.0517 20.898C20.1992 20.7645 20.3436 20.6269 20.4853 20.4853C20.5299 20.4406 20.5746 20.3955 20.6183 20.3499C20.7402 20.2245 20.8583 20.0968 20.9738 19.9674C22.9304 17.7695 24 14.9671 24 12C24 8.79473 22.7517 5.7812 20.4853 3.51474ZM20.9445 19.855C20.8317 19.9832 20.7162 20.1095 20.598 20.2326C20.414 20.4244 20.2241 20.6102 20.0278 20.7893C19.9534 20.8579 19.878 20.9247 19.8018 20.991C19.0317 21.6609 18.1746 22.2329 17.2502 22.6886C16.9259 22.8487 16.5934 22.9944 16.2532 23.1248C14.9319 23.6319 13.4977 23.9098 12 23.9098C10.5546 23.9098 9.16872 23.6508 7.88617 23.1771C7.3597 22.9832 6.85083 22.7526 6.36226 22.4887C6.29053 22.4499 6.21925 22.4107 6.14842 22.3705C5.77579 22.1594 5.41534 21.9289 5.06932 21.6798C4.81083 21.4944 4.56 21.2991 4.31775 21.0934C4.23293 21.0217 4.14902 20.949 4.06647 20.8746C3.93203 20.755 3.8003 20.6319 3.67173 20.5056C3.42812 20.2669 3.19534 20.0183 2.97293 19.7598C1.17699 17.6738 0.0902256 14.9617 0.0902256 12C0.0902256 5.43293 5.43293 0.0902256 12 0.0902256C18.5671 0.0902256 23.9098 5.43293 23.9098 12C23.9098 15.0072 22.7896 17.7573 20.9445 19.855Z" fill="#09080B"/>
<path d="M20.4853 3.51474L24.0208 -0.0207983L24.0208 -0.0208005L20.4853 3.51474ZM3.51474 3.51474L-0.0207962 -0.0208005L-0.0207983 -0.0207983L3.51474 3.51474ZM2.94541 19.8753L6.71685 16.5926L6.71287 16.588L2.94541 19.8753ZM3.51474 20.4853L-0.0208222 24.0208L-0.020798 24.0208L3.51474 20.4853ZM3.65549 20.6233L7.13283 17.0305L7.11831 17.0165L7.10368 17.0025L3.65549 20.6233ZM4.0412 20.9811L7.3696 17.2499L7.36351 17.2444L7.35739 17.239L4.0412 20.9811ZM4.2821 21.1895L7.50691 17.3684L7.50122 17.3636L7.49552 17.3588L4.2821 21.1895ZM4.47383 21.3478L8.00937 17.8123L7.81806 17.621L7.60721 17.4514L4.47383 21.3478ZM4.47744 21.351L7.61911 17.4613L7.44301 17.319L7.25479 17.1933L4.47744 21.351ZM20.0517 20.898L16.6963 17.1912L16.6927 17.1944L20.0517 20.898ZM20.4853 20.4853L24.0208 24.0208L24.0208 24.0208L20.4853 20.4853ZM20.6183 20.3499L17.0316 16.8663L17.0218 16.8764L17.0121 16.8866L20.6183 20.3499ZM20.9738 19.9674L24.7051 23.2956L24.7085 23.2919L20.9738 19.9674ZM20.9445 19.855L24.6975 23.1588L24.6989 23.1573L20.9445 19.855ZM20.598 20.2326L24.205 23.6953L24.2055 23.6947L20.598 20.2326ZM20.0278 20.7893L16.6573 17.0962L16.6487 17.104L16.6401 17.1119L20.0278 20.7893ZM19.8018 20.991L16.5203 17.2185L16.5201 17.2187L19.8018 20.991ZM17.2502 22.6886L15.0396 18.2038L15.0366 18.2053L17.2502 22.6886ZM16.2532 23.1248L14.4637 18.456L14.4619 18.4567L16.2532 23.1248ZM7.88617 23.1771L9.61844 18.4868L9.61488 18.4855L7.88617 23.1771ZM6.36226 22.4887L3.98344 26.8866L3.98595 26.8879L6.36226 22.4887ZM6.14842 22.3705L8.61421 18.0208L8.61322 18.0203L6.14842 22.3705ZM5.06932 21.6798L7.99003 17.6216L7.98356 17.6169L5.06932 21.6798ZM4.31775 21.0934L7.55414 17.2821L7.54651 17.2756L4.31775 21.0934ZM4.06647 20.8746L7.41467 17.1612L7.4019 17.1496L7.38905 17.1382L4.06647 20.8746ZM3.67173 20.5056L7.17585 16.9389L7.17068 16.9338L3.67173 20.5056ZM2.97293 19.7598L6.76315 16.4988L6.76209 16.4976L2.97293 19.7598ZM24.0208 -0.0208005C20.8167 -3.22493 16.5314 -5 12 -5V5C13.8792 5 15.6209 5.72147 16.9497 7.05027L24.0208 -0.0208005ZM12 -5C7.46863 -5 3.18333 -3.22493 -0.0207962 -0.0208005L7.05027 7.05027C8.37907 5.72147 10.1208 5 12 5V-5ZM-0.0207983 -0.0207983C-3.22493 3.18333 -5 7.46863 -5 12H5C5 10.1208 5.72147 8.37907 7.05027 7.05027L-0.0207983 -0.0207983ZM-5 12C-5 16.1316 -3.52405 20.0659 -0.822047 23.1626L6.71287 16.588C5.60375 15.3169 5 13.7195 5 12H-5ZM-0.826024 23.1581C-0.56775 23.4548 -0.299087 23.7425 -0.0208222 24.0208L7.05029 16.9498C6.93338 16.8328 6.82219 16.7136 6.71685 16.5926L-0.826024 23.1581ZM-0.020798 24.0208C0.0342766 24.0759 0.115274 24.1564 0.207301 24.2441L7.10368 17.0025C7.10372 17.0026 7.10267 17.0016 7.10035 16.9993C7.09804 16.9971 7.0947 16.9938 7.09015 16.9894C7.08066 16.98 7.06825 16.9677 7.05027 16.9497L-0.020798 24.0208ZM0.17815 24.2161C0.35216 24.3845 0.534485 24.5542 0.725015 24.7231L7.35739 17.239C7.28627 17.176 7.21145 17.1066 7.13283 17.0305L0.17815 24.2161ZM0.71281 24.7122C0.829816 24.8166 0.948442 24.9193 1.06869 25.0201L7.49552 17.3588C7.45336 17.3234 7.41139 17.2871 7.3696 17.2499L0.71281 24.7122ZM1.0573 25.0105C1.14131 25.0814 1.2366 25.1607 1.34045 25.2442L7.60721 17.4514C7.58205 17.4312 7.55012 17.4049 7.50691 17.3684L1.0573 25.0105ZM0.938301 24.8834C0.938365 24.8834 0.939743 24.8848 0.941418 24.8865C0.943187 24.8882 0.94608 24.8911 0.949647 24.8947C0.956499 24.9015 0.96852 24.9134 0.983601 24.9281C1.01306 24.9568 1.06527 25.0071 1.13246 25.0675C1.28325 25.2031 1.47187 25.3562 1.7001 25.5087L7.25479 17.1933C7.48167 17.3448 7.66915 17.497 7.81882 17.6316C7.88545 17.6915 7.93709 17.7413 7.96596 17.7694C7.98074 17.7838 7.99246 17.7954 7.999 17.8019C8.00241 17.8053 8.00514 17.8081 8.00675 17.8097C8.00758 17.8105 8.00825 17.8112 8.00867 17.8116C8.00906 17.812 8.00937 17.8123 8.00937 17.8123L0.938301 24.8834ZM1.33578 25.2407C4.3531 27.6777 8.08959 29 12 29V19C10.3697 19 8.85232 18.4573 7.61911 17.4613L1.33578 25.2407ZM12 29C16.2451 29 20.2791 27.4419 23.4107 24.6017L16.6927 17.1944C15.4033 18.3638 13.7648 19 12 19V29ZM23.4072 24.6049C23.6185 24.4137 23.8228 24.2188 24.0208 24.0208L16.9497 16.9497C16.8644 17.035 16.78 17.1153 16.6963 17.1912L23.4072 24.6049ZM24.0208 24.0208C24.0758 23.9658 24.1473 23.8938 24.2246 23.8133L17.0121 16.8866C17.0019 16.8972 16.9841 16.9154 16.9497 16.9497L24.0208 24.0208ZM24.2051 23.8335C24.3821 23.6513 24.5486 23.4712 24.7051 23.2956L17.2425 16.6391C17.1681 16.7225 17.0982 16.7978 17.0316 16.8663L24.2051 23.8335ZM24.7085 23.2919C27.4814 20.177 29 16.191 29 12H19C19 13.7432 18.3794 15.362 17.2392 16.6428L24.7085 23.2919ZM29 12C29 7.46863 27.2249 3.18333 24.0208 -0.0207983L16.9497 7.05027C18.2785 8.37907 19 10.1208 19 12H29ZM17.1915 16.5513C17.12 16.6325 17.0531 16.7053 16.9905 16.7706L24.2055 23.6947C24.3794 23.5136 24.5435 23.3338 24.6975 23.1588L17.1915 16.5513ZM16.9911 16.77C16.879 16.8867 16.7678 16.9953 16.6573 17.0962L23.3984 24.4825C23.6803 24.2251 23.9489 23.962 24.205 23.6953L16.9911 16.77ZM16.6401 17.1119C16.6118 17.138 16.5743 17.1715 16.5203 17.2185L23.0833 24.7635C23.1818 24.6778 23.295 24.5778 23.4155 24.4668L16.6401 17.1119ZM16.5201 17.2187C16.0726 17.608 15.575 17.9399 15.0396 18.2038L19.4609 27.1733C20.7742 26.526 21.9909 25.7138 23.0835 24.7633L16.5201 17.2187ZM15.0366 18.2053C14.849 18.2979 14.658 18.3816 14.4637 18.456L18.0427 27.7936C18.5288 27.6073 19.0027 27.3995 19.4638 27.1719L15.0366 18.2053ZM14.4619 18.4567C13.7025 18.7481 12.8749 18.9098 12 18.9098V28.9098C14.1206 28.9098 16.1613 28.5156 18.0446 27.7929L14.4619 18.4567ZM12 18.9098C11.1558 18.9098 10.3559 18.7592 9.61844 18.4868L6.15389 27.8675C7.98154 28.5425 9.95337 28.9098 12 28.9098V18.9098ZM9.61488 18.4855C9.31358 18.3745 9.02097 18.242 8.73857 18.0895L3.98595 26.8879C4.68069 27.2632 5.40582 27.5918 6.15745 27.8688L9.61488 18.4855ZM8.74107 18.0909C8.69083 18.0637 8.64951 18.0408 8.61421 18.0208L3.68263 26.7202C3.78898 26.7805 3.89022 26.8362 3.98344 26.8866L8.74107 18.0909ZM8.61322 18.0203C8.39542 17.8969 8.18733 17.7636 7.99002 17.6216L2.14862 25.7381C2.64335 26.0942 3.15616 26.4219 3.68362 26.7208L8.61322 18.0203ZM7.98356 17.6169C7.83181 17.5081 7.68877 17.3964 7.55414 17.2821L1.08135 24.9046C1.43123 25.2017 1.78985 25.4808 2.15509 25.7428L7.98356 17.6169ZM7.54651 17.2756C7.49012 17.228 7.44786 17.1911 7.41467 17.1612L0.718268 24.588C0.850191 24.707 0.975744 24.8153 1.08898 24.9111L7.54651 17.2756ZM7.38905 17.1382C7.31679 17.074 7.24558 17.0074 7.17585 16.9389L0.167615 24.0722C0.355026 24.2564 0.547271 24.4361 0.743881 24.6109L7.38905 17.1382ZM7.17068 16.9338C7.02968 16.7957 6.89398 16.6509 6.76315 16.4988L-0.817287 23.0209C-0.503305 23.3858 -0.173441 23.7381 0.172776 24.0773L7.17068 16.9338ZM6.76209 16.4976C5.71496 15.2813 5.09023 13.7156 5.09023 12H-4.90977C-4.90977 16.2077 -3.36097 20.0663 -0.816224 23.0221L6.76209 16.4976ZM5.09023 12C5.09023 8.19436 8.19436 5.09023 12 5.09023V-4.90977C2.67151 -4.90977 -4.90977 2.67151 -4.90977 12H5.09023ZM12 5.09023C15.8056 5.09023 18.9098 8.19436 18.9098 12H28.9098C28.9098 2.67151 21.3285 -4.90977 12 -4.90977V5.09023ZM18.9098 12C18.9098 13.7422 18.2657 15.33 17.1901 16.5528L24.6989 23.1573C27.3135 20.1846 28.9098 16.2722 28.9098 12H18.9098Z" fill="#1A1616" mask="url(#path-7-inside-1_517_423)"/>
</g>
</g>
<defs>
<clipPath id="clip0_517_423">
<rect width="24" height="24" fill="white"/>
</clipPath>
</defs>
</svg>
